<?xml version="1.0" standalone="no"?><svg xmlns="http://www.w3.org/2000/svg" viewBox="0 0 1440 320"><path fill="#6454E5" fill-opacity="1" d="M0,64L34.3,96C68.6,128,137,192,206,224C274.3,256,343,256,411,229.3C480,203,549,149,617,154.7C685.7,160,754,224,823,234.7C891.4,245,960,203,1029,170.7C1097.1,139,1166,117,1234,133.3C1302.9,149,1371,203,1406,229.3L1440,256L1440,0L1405.7,0C1371.4,0,1303,0,1234,0C1165.7,0,1097,0,1029,0C960,0,891,0,823,0C754.3,0,686,0,617,0C548.6,0,480,0,411,0C342.9,0,274,0,206,0C137.1,0,69,0,34,0L0,0Z"></path></svg>